<svg version="1.1" id="Layer_1" xmlns="http://www.w3.org/2000/svg" xmlns:xlink="http://www.w3.org/1999/xlink" x="0px" y="0px"
	 width="100%" viewBox="0 0 1293 975" enable-background="new 0 0 1293 1208" xml:space="preserve">
<path fill="#FFFFFF" opacity="1.000000" stroke="none" 
	d="
M1.000000,403.000000 
	C1.000000,268.666656 1.000000,134.833328 1.000000,1.000000 
	C432.000000,1.000000 863.000000,1.000000 1294.000000,1.000000 
	C1294.000000,403.666656 1294.000000,806.333313 1294.000000,1209.000000 
	C863.000000,1209.000000 432.000000,1209.000000 1.000000,1209.000000 
	C1.000000,940.500000 1.000000,672.000000 1.000000,403.000000 
M213.955582,549.437256 
	C200.964371,558.697998 191.132812,570.649048 183.982971,584.840149 
	C176.177841,600.331970 173.742706,616.872986 173.774551,634.085632 
	C173.898209,700.913757 173.609512,767.742737 173.812759,834.570435 
	C173.861694,850.665894 173.483826,867.066040 176.296646,882.790466 
	C183.566589,923.431580 220.494675,956.020142 261.530609,958.976379 
	C278.092285,960.169495 294.790985,959.522827 311.427856,959.595886 
	C337.744110,959.711487 364.060730,959.763306 390.377258,959.778137 
	C428.358551,959.799561 466.339874,959.781555 504.321136,959.747009 
	C538.348694,959.716125 565.944702,946.310974 586.318359,919.087036 
	C599.041748,902.085449 604.632019,882.412537 604.875854,861.226501 
	C604.955688,854.286011 604.888428,847.343750 604.888428,840.348511 
	C633.504883,840.348511 661.550537,840.348511 689.584595,840.348511 
	C689.584595,847.172791 689.641541,853.650024 689.575623,860.125977 
	C689.002808,916.406616 732.682129,958.019836 783.940125,959.498291 
	C816.540466,960.438599 849.187561,959.776062 881.813721,959.793823 
	C928.443970,959.819214 975.074524,959.714294 1021.704468,959.839722 
	C1074.920898,959.982849 1120.336060,918.423828 1120.272339,863.350464 
	C1120.180908,784.189941 1120.412720,705.028320 1120.046875,625.869263 
	C1119.928223,600.209229 1110.107666,577.974548 1092.102783,559.649109 
	C1073.488647,540.703674 1050.620361,531.478516 1024.128540,531.162720 
	C1015.520020,531.060120 1006.909180,531.146545 998.237427,531.146545 
	C998.237427,502.901001 998.237427,475.167999 998.237427,447.001038 
	C1000.490356,447.001038 1002.456482,447.087463 1004.412903,446.987000 
	C1017.177979,446.331329 1030.205078,447.040070 1042.656982,444.699127 
	C1086.944824,436.373077 1120.000854,395.412628 1120.000854,350.308777 
	C1120.000977,268.313660 1120.093872,186.318390 1119.946411,104.323555 
	C1119.899902,78.429047 1110.685303,55.836044 1092.683350,37.293110 
	C1072.739502,16.749912 1048.037964,6.619402 1019.392822,6.598318 
	C943.398621,6.542383 867.404236,6.620208 791.409973,6.640613 
	C759.797058,6.649101 733.507019,18.556658 712.988770,42.526478 
	C699.220093,58.611389 691.129333,77.372566 690.057983,98.685638 
	C689.524597,109.297501 689.965149,119.958328 689.965149,130.675079 
	C661.055298,130.675079 632.999512,130.675079 604.430176,130.675079 
	C604.430176,121.864319 604.602966,113.371521 604.401367,104.887627 
	C603.307434,58.854992 572.749634,19.955418 528.051575,9.695722 
	C514.800964,6.654268 500.651642,6.801786 486.909454,6.750517 
	C415.249268,6.483171 343.586670,6.412850 271.926880,6.726202 
	C243.974365,6.848432 220.094376,17.910797 200.920303,37.988670 
	C182.581360,57.192051 173.977631,80.610863 174.006073,107.264336 
	C174.091629,187.426056 174.034164,267.587952 174.081970,347.749725 
	C174.084351,351.729645 174.491562,355.714355 174.815475,359.688232 
	C178.401154,403.678864 218.258408,446.708679 270.320129,447.002838 
	C278.763916,447.050537 287.208252,447.009552 295.763672,447.009552 
	C295.763672,475.426605 295.763672,503.158783 295.763672,531.469299 
	C266.924774,529.923706 238.782227,530.789307 213.955582,549.437256 
M454.522675,1202.131714 
	C454.522675,1175.932617 454.522675,1149.733643 454.522675,1123.534546 
	C456.099762,1124.022583 456.641754,1124.756592 457.122620,1125.528564 
	C468.526550,1143.834473 480.298645,1161.926392 491.135437,1180.562256 
	C495.384949,1187.869873 499.971527,1191.473755 508.647644,1190.390991 
	C512.646362,1189.891968 515.173767,1189.154663 517.333557,1185.504639 
	C527.810608,1167.798706 538.593933,1150.273926 549.281433,1132.692627 
	C551.543457,1128.971680 553.858704,1125.282959 556.149475,1121.579346 
	C556.549011,1121.671997 556.948608,1121.764648 557.348145,1121.857178 
	C557.348145,1149.510620 557.348145,1177.163940 557.348145,1204.744141 
	C569.200134,1204.744141 580.277466,1204.744141 591.189697,1204.744141 
	C591.189697,1155.910156 591.189697,1107.498779 591.189697,1058.384766 
	C582.257996,1058.384766 573.967163,1058.680542 565.711670,1058.268799 
	C561.094910,1058.038574 558.648010,1059.676514 556.329346,1063.591064 
	C539.868103,1091.381958 523.149414,1119.020386 506.389648,1146.912109 
	C505.796814,1146.077637 505.289886,1145.443726 504.867554,1144.757812 
	C487.916412,1117.227295 470.993225,1089.679443 453.975098,1062.190308 
	C453.006866,1060.626465 451.305359,1058.454102 449.882233,1058.405518 
	C440.126312,1058.072388 430.353638,1058.230713 420.491058,1058.230713 
	C420.491058,1107.440552 420.491058,1156.111694 420.491058,1205.240967 
	C430.931732,1205.240967 440.920288,1205.314819 450.904755,1205.144897 
	C452.116730,1205.124390 453.306335,1203.788940 454.522675,1202.131714 
M210.688980,1202.063965 
	C210.688980,1174.197266 210.688980,1146.330444 210.688980,1117.182617 
	C212.456985,1119.080444 213.252228,1119.859375 213.963684,1120.708618 
	C236.523560,1147.640625 259.059937,1174.592407 281.671326,1201.481079 
	C282.869202,1202.905518 284.658936,1204.739990 286.228241,1204.794556 
	C295.329071,1205.109863 304.446411,1204.948730 313.822998,1204.948730 
	C313.822998,1156.086914 313.822998,1107.722656 313.822998,1059.070312 
	C302.115631,1059.070312 290.731018,1059.070312 278.767212,1059.070312 
	C278.767212,1087.523560 278.767212,1115.681274 278.767212,1143.838867 
	C276.380463,1142.928101 275.113159,1141.533325 273.903015,1140.090576 
	C252.394287,1114.448608 230.911301,1088.784912 209.346771,1063.189941 
	C207.919708,1061.496216 205.934570,1059.171265 204.120987,1059.089355 
	C194.881454,1058.672241 185.612930,1058.896851 176.313812,1058.896851 
	C176.313812,1107.786865 176.313812,1156.290161 176.313812,1204.947998 
	C186.989609,1204.947998 197.147934,1205.008911 207.303238,1204.861938 
	C208.426620,1204.845825 209.532776,1203.641357 210.688980,1202.063965 
M924.731750,1109.499878 
	C924.731750,1141.268799 924.731750,1173.037720 924.731750,1205.203857 
	C934.973389,1205.203857 944.792114,1204.924561 954.583496,1205.320923 
	C959.542725,1205.521606 961.237671,1204.362915 961.031555,1199.070312 
	C960.580566,1187.489258 960.891968,1175.878662 960.891968,1163.988770 
	C970.373413,1163.988770 979.348083,1163.842651 988.308960,1164.128418 
	C989.857849,1164.177856 991.795898,1165.740967 992.794983,1167.145020 
	C1000.977234,1178.642944 1008.939392,1190.297241 1017.090698,1201.817627 
	C1018.034180,1203.151001 1019.707825,1204.841919 1021.071289,1204.867676 
	C1033.511353,1205.103149 1045.957642,1205.005981 1059.744751,1205.005981 
	C1053.689697,1196.398926 1048.202393,1188.593018 1042.708618,1180.791748 
	C1037.213989,1172.989380 1031.712769,1165.191528 1026.058472,1157.170410 
	C1027.988892,1156.069824 1029.407837,1155.244629 1030.841431,1154.445801 
	C1059.715942,1138.356445 1065.194214,1098.249634 1041.523193,1075.101807 
	C1029.044067,1062.898438 1013.290405,1058.530884 996.414551,1058.238159 
	C973.590149,1057.842041 950.753845,1058.127686 927.922668,1058.134766 
	C926.972168,1058.135010 926.021667,1058.276123 924.732239,1058.378540 
	C924.732239,1075.264404 924.732239,1091.882080 924.731750,1109.499878 
M674.601562,1059.835938 
	C652.540588,1107.948486 630.479614,1156.060913 608.038696,1205.002197 
	C620.013123,1205.002197 630.789124,1204.862671 641.557495,1205.086792 
	C644.817261,1205.154541 646.155884,1203.933472 647.286133,1201.054810 
	C650.382812,1193.168335 653.929016,1185.459595 657.107910,1177.603882 
	C658.124634,1175.091309 659.438416,1174.165649 662.256287,1174.183594 
	C683.071594,1174.316895 703.889038,1174.336670 724.703491,1174.143311 
	C727.889221,1174.113770 728.990112,1175.465576 730.038879,1178.004761 
	C733.336426,1185.988403 736.760681,1193.922485 740.317505,1201.793579 
	C740.896606,1203.075195 742.382202,1204.839111 743.476379,1204.858887 
	C755.567078,1205.078369 767.663147,1204.996948 780.406860,1204.996948 
	C779.663086,1202.999023 779.253296,1201.603760 778.641296,1200.303711 
	C775.458679,1193.543213 772.174744,1186.829956 769.016602,1180.058105 
	C751.045227,1141.522949 733.012451,1103.015991 715.256104,1064.381836 
	C713.049988,1059.581909 710.415527,1057.857178 705.173767,1058.154297 
	C696.708130,1058.633911 688.194580,1058.233154 679.702332,1058.311401 
	C678.135193,1058.325806 676.572754,1058.845825 674.601562,1059.835938 
M1178.741211,1111.753662 
	C1182.121460,1116.482300 1185.309082,1121.366089 1188.949585,1125.884888 
	C1191.365479,1128.883423 1191.113892,1131.083740 1188.923096,1134.094604 
	C1173.292236,1155.576782 1157.812622,1177.169067 1142.327148,1198.756592 
	C1141.028809,1200.566528 1140.040649,1202.598877 1138.531128,1205.170654 
	C1152.271118,1205.170654 1165.085449,1205.238403 1177.896729,1205.067505 
	C1179.198730,1205.050171 1180.902954,1203.896484 1181.707397,1202.763794 
	C1188.821533,1192.746826 1195.738892,1182.590332 1202.789673,1172.527832 
	C1206.541016,1167.173950 1210.441162,1161.924194 1214.429199,1156.413086 
	C1215.358643,1157.517822 1215.940063,1158.114746 1216.414551,1158.786987 
	C1226.566284,1173.165894 1236.676758,1187.574341 1246.896118,1201.905029 
	C1247.852051,1203.245605 1249.465576,1205.023315 1250.801270,1205.046997 
	C1264.067139,1205.281372 1277.338623,1205.188843 1291.537720,1205.188843 
	C1290.162476,1202.922119 1289.352051,1201.346313 1288.324097,1199.928345 
	C1272.442139,1178.020630 1256.543457,1156.125244 1240.614014,1134.251953 
	C1238.629150,1131.526611 1236.745117,1129.371094 1239.578613,1125.630493 
	C1252.213257,1108.951294 1264.537964,1092.036987 1276.933228,1075.177124 
	C1280.787720,1069.934082 1284.512085,1064.595337 1288.898804,1058.456909 
	C1286.093262,1058.273682 1284.654419,1058.101562 1283.214966,1058.098145 
	C1273.050781,1058.073364 1262.883911,1058.210205 1252.723755,1058.007446 
	C1249.533447,1057.943726 1247.638916,1058.973389 1245.774048,1061.575806 
	C1235.749634,1075.565308 1225.502441,1089.395508 1215.256226,1103.384277 
	C1214.740356,1102.968628 1214.283081,1102.737549 1214.020020,1102.368164 
	C1204.383545,1088.842163 1194.683716,1075.359619 1185.215210,1061.716675 
	C1183.397949,1059.098022 1181.579224,1057.926270 1178.351074,1057.993164 
	C1168.857544,1058.190186 1159.357178,1058.056763 1149.859497,1058.053345 
	C1147.311279,1058.052368 1144.763184,1058.053101 1140.602295,1058.053101 
	C1153.826538,1076.661499 1166.082153,1093.907104 1178.741211,1111.753662 
M15.950182,1179.473145 
	C21.637241,1188.620605 29.552114,1195.224976 39.108757,1200.053467 
	C54.107597,1207.631836 70.201836,1208.148682 86.309143,1206.614380 
	C102.657242,1205.057129 117.051720,1198.645142 127.880096,1185.662598 
	C138.178696,1173.315063 141.743332,1158.634277 141.886520,1143.054199 
	C142.131531,1116.396729 141.936096,1089.735229 141.903702,1063.075439 
	C141.902161,1061.807007 141.689209,1060.538940 141.571472,1059.234863 
	C129.967545,1059.234863 118.708504,1059.234863 106.979874,1059.234863 
	C106.979874,1061.259399 106.980042,1063.053223 106.979843,1064.847046 
	C106.977028,1090.507080 107.297195,1116.172729 106.864555,1141.825439 
	C106.544090,1160.826660 100.052704,1173.850708 80.844719,1176.592407 
	C64.238449,1178.962891 48.384258,1173.608398 43.596634,1155.697876 
	C42.580692,1151.897217 42.069607,1147.852905 42.038719,1143.915283 
	C41.832233,1117.589966 41.818554,1091.263062 41.743462,1064.936768 
	C41.738354,1063.145386 41.742798,1061.354126 41.742798,1059.413330 
	C29.531610,1059.413330 17.852465,1059.413330 6.018209,1059.413330 
	C6.018209,1087.496948 5.985609,1115.153320 6.032674,1142.809692 
	C6.054510,1155.640869 8.871842,1167.778809 15.950182,1179.473145 
M872.450500,1087.091309 
	C882.079834,1087.299438 891.711487,1087.662109 901.335510,1087.516235 
	C902.513367,1087.498291 904.564331,1084.804199 904.647827,1083.265503 
	C905.017456,1076.456543 904.708130,1069.614258 904.864990,1062.788940 
	C904.948181,1059.166992 903.143677,1058.213867 899.940063,1058.215332 
	C858.635010,1058.234619 817.329834,1058.226929 776.024902,1058.152832 
	C773.095154,1058.147583 771.845154,1058.969360 771.931702,1062.130981 
	C772.127686,1069.287476 772.161194,1076.458496 771.920959,1083.612305 
	C771.804565,1087.079468 773.261414,1087.879395 776.331970,1087.811035 
	C782.491333,1087.673828 788.656067,1087.774414 794.818542,1087.775146 
	C803.165405,1087.776123 811.512268,1087.775391 820.135864,1087.775391 
	C820.135864,1089.525146 820.135132,1090.670410 820.135986,1091.815674 
	C820.163391,1127.791138 820.250854,1163.766846 820.135864,1199.741821 
	C820.122803,1203.833130 821.176147,1205.262695 825.431702,1205.103394 
	C834.080444,1204.779663 842.761047,1204.742432 851.405884,1205.114136 
	C855.965881,1205.310181 856.946960,1203.711304 856.928101,1199.442993 
	C856.771851,1164.134277 856.836914,1128.824707 856.835022,1093.515381 
	C856.834900,1091.728394 856.834961,1089.941528 856.834961,1088.098145 
	C862.045715,1087.741943 866.800720,1087.416992 872.450500,1087.091309 
M1084.307739,1072.515625 
	C1084.307739,1116.600220 1084.307739,1160.684692 1084.307739,1204.781982 
	C1096.776123,1204.781982 1108.385010,1204.781982 1120.171265,1204.781982 
	C1120.171265,1155.980591 1120.171265,1107.403320 1120.171265,1058.247192 
	C1112.358398,1058.247192 1104.905396,1058.275513 1097.452637,1058.240967 
	C1084.340088,1058.180054 1084.340210,1058.163940 1084.317383,1071.023193 
	C1084.317017,1071.189819 1084.312012,1071.356445 1084.307739,1072.515625 
M356.699371,1204.866821 
	C365.979095,1204.866821 375.258820,1204.866821 384.815216,1204.866821 
	C384.815216,1156.089722 384.815216,1107.754150 384.815216,1059.338867 
	C373.128326,1059.338867 361.752838,1059.338867 350.283936,1059.338867 
	C350.179779,1060.325806 350.052490,1060.969360 350.052490,1061.613037 
	C350.052307,1107.732544 350.121765,1153.852295 349.979736,1199.971313 
	C349.965424,1204.612793 352.071289,1205.306396 356.699371,1204.866821 
z"/>
<path fill="#FEFEFE" opacity="1.000000" stroke="none" 
	d="
M214.231354,549.204834 
	C238.782227,530.789307 266.924774,529.923706 295.763672,531.469299 
	C295.763672,503.158783 295.763672,475.426605 295.763672,447.009552 
	C287.208252,447.009552 278.763916,447.050537 270.320129,447.002838 
	C218.258408,446.708679 178.401154,403.678864 174.815475,359.688232 
	C174.491562,355.714355 174.084351,351.729645 174.081970,347.749725 
	C174.034164,267.587952 174.091629,187.426056 174.006073,107.264336 
	C173.977631,80.610863 182.581360,57.192051 200.920303,37.988670 
	C220.094376,17.910797 243.974365,6.848432 271.926880,6.726202 
	C343.586670,6.412850 415.249268,6.483171 486.909454,6.750517 
	C500.651642,6.801786 514.800964,6.654268 528.051575,9.695722 
	C572.749634,19.955418 603.307434,58.854992 604.401367,104.887627 
	C604.602966,113.371521 604.430176,121.864319 604.430176,130.675079 
	C632.999512,130.675079 661.055298,130.675079 689.965149,130.675079 
	C689.965149,119.958328 689.524597,109.297501 690.057983,98.685638 
	C691.129333,77.372566 699.220093,58.611389 712.988770,42.526478 
	C733.507019,18.556658 759.797058,6.649101 791.409973,6.640613 
	C867.404236,6.620208 943.398621,6.542383 1019.392822,6.598318 
	C1048.037964,6.619402 1072.739502,16.749912 1092.683350,37.293110 
	C1110.685303,55.836044 1119.899902,78.429047 1119.946411,104.323555 
	C1120.093872,186.318390 1120.000977,268.313660 1120.000854,350.308777 
	C1120.000854,395.412628 1086.944824,436.373077 1042.656982,444.699127 
	C1030.205078,447.040070 1017.177979,446.331329 1004.412903,446.987000 
	C1002.456482,447.087463 1000.490356,447.001038 998.237427,447.001038 
	C998.237427,475.167999 998.237427,502.901001 998.237427,531.146545 
	C1006.909180,531.146545 1015.520020,531.060120 1024.128540,531.162720 
	C1050.620361,531.478516 1073.488647,540.703674 1092.102783,559.649109 
	C1110.107666,577.974548 1119.928223,600.209229 1120.046875,625.869263 
	C1120.412720,705.028320 1120.180908,784.189941 1120.272339,863.350464 
	C1120.336060,918.423828 1074.920898,959.982849 1021.704468,959.839722 
	C975.074524,959.714294 928.443970,959.819214 881.813721,959.793823 
	C849.187561,959.776062 816.540466,960.438599 783.940125,959.498291 
	C732.682129,958.019836 689.002808,916.406616 689.575623,860.125977 
	C689.641541,853.650024 689.584595,847.172791 689.584595,840.348511 
	C661.550537,840.348511 633.504883,840.348511 604.888428,840.348511 
	C604.888428,847.343750 604.955688,854.286011 604.875854,861.226501 
	C604.632019,882.412537 599.041748,902.085449 586.318359,919.087036 
	C565.944702,946.310974 538.348694,959.716125 504.321136,959.747009 
	C466.339874,959.781555 428.358551,959.799561 390.377258,959.778137 
	C364.060730,959.763306 337.744110,959.711487 311.427856,959.595886 
	C294.790985,959.522827 278.092285,960.169495 261.530609,958.976379 
	C220.494675,956.020142 183.566589,923.431580 176.296646,882.790466 
	C173.483826,867.066040 173.861694,850.665894 173.812759,834.570435 
	C173.609512,767.742737 173.898209,700.913757 173.774551,634.085632 
	C173.742706,616.872986 176.177841,600.331970 183.982971,584.840149 
	C191.132812,570.649048 200.964371,558.697998 214.231354,549.204834 
M934.333313,642.870117 
	C939.231140,635.248291 945.786255,629.340454 953.933411,625.566528 
	C957.924866,623.717590 959.089111,621.442993 959.086487,617.205811 
	C959.020752,513.049622 959.091492,408.893402 959.137756,304.737183 
	C959.138733,302.623199 959.137939,300.509216 959.137939,298.314178 
	C972.481079,298.314178 985.154358,298.314178 998.245972,298.314178 
	C998.245972,333.220673 998.245972,367.637451 998.245972,402.111023 
	C1006.337097,402.111023 1014.026123,401.720062 1021.663208,402.183350 
	C1045.888184,403.652863 1075.271851,380.569427 1075.122437,348.408447 
	C1074.748291,267.914581 1075.001221,187.417831 1074.998169,106.922226 
	C1074.997070,76.200783 1051.825928,52.181240 1021.049255,52.091179 
	C943.221802,51.863426 865.392944,51.967438 787.565186,52.161751 
	C765.505005,52.216827 745.743652,66.906754 737.998474,87.627602 
	C732.732361,101.715889 735.748840,116.219383 734.670288,131.176239 
	C768.360413,131.176239 801.554626,131.176239 834.819702,131.176239 
	C834.819702,142.468414 834.535706,153.139954 834.942566,163.785110 
	C835.138489,168.913712 833.629395,170.130417 828.544373,170.122620 
	C723.550354,169.961426 618.556030,170.009888 513.561768,169.960358 
	C510.362701,169.958847 508.251221,170.445724 506.436584,173.736664 
	C494.295044,195.755661 474.603485,203.233337 452.383301,199.537964 
	C424.159119,194.844070 407.125824,172.239334 410.005676,143.354416 
	C411.888428,124.470299 421.447113,111.076180 438.624146,102.844360 
	C464.281036,90.548653 495.566315,101.487381 507.480560,127.266945 
	C508.776367,130.070786 510.431641,131.125931 513.554199,131.070801 
	C524.216919,130.882584 534.885132,130.998703 545.551208,130.998718 
	C550.132751,130.998718 554.714355,130.998734 559.129028,130.998734 
	C559.129028,122.011856 559.185181,113.713684 559.118774,105.416489 
	C558.888794,76.656509 535.452393,52.346313 506.652435,52.199516 
	C438.158569,51.850399 369.662018,52.028477 301.166534,52.006489 
	C290.834717,52.003170 280.495239,51.826553 270.172546,52.150574 
	C243.199814,52.997219 219.154694,76.925331 219.077744,103.794891 
	C218.843857,185.456299 218.721481,267.120331 219.187927,348.779724 
	C219.295151,367.548950 227.967255,382.729431 243.933517,393.657532 
	C260.138733,404.749207 278.105438,401.765167 296.047943,402.109436 
	C296.047943,384.857605 296.125824,368.209595 295.911774,351.565308 
	C295.893066,350.109314 294.274689,348.116913 292.864532,347.319733 
	C273.499878,336.372894 263.770203,317.051727 266.739990,295.028534 
	C269.976501,271.027435 289.526184,252.554459 313.236145,251.093307 
	C338.608246,249.529709 359.972595,265.079193 366.167664,289.618073 
	C372.087097,313.065216 360.549255,337.746887 338.618774,347.829926 
	C335.416931,349.302032 334.752441,350.987610 334.756165,354.151733 
	C334.793304,385.631897 334.623138,417.112213 334.629578,448.592499 
	C334.639374,496.573700 334.753418,544.554871 334.801910,592.536072 
	C334.827850,618.184387 334.813904,643.832642 334.800140,669.480957 
	C334.799194,671.243225 334.649078,673.005371 334.574646,674.629150 
	C321.387451,674.629150 308.815460,674.629150 295.767578,674.629150 
	C295.767578,641.533752 295.767578,608.808655 295.767578,576.001221 
	C287.619049,576.001221 279.955627,575.984619 272.292267,576.004211 
	C242.793381,576.079590 219.036758,599.721863 219.016312,629.206116 
	C218.962921,706.201843 218.972137,783.197632 219.023941,860.193359 
	C219.026398,863.824768 219.375290,867.516052 220.079727,871.077209 
	C224.822479,895.053162 246.089096,913.956970 268.958191,913.995483 
	C349.120148,914.130493 429.282684,914.129822 509.444183,913.900452 
	C515.075562,913.884338 521.065552,912.441162 526.266968,910.211243 
	C552.967468,898.764526 566.649536,869.093811 558.886475,839.633789 
	C526.472656,839.633789 493.909729,839.633789 461.494049,839.633789 
	C461.494049,826.829773 461.494049,814.588440 461.494049,802.003967 
	C463.889526,802.003967 465.866547,802.003906 467.843597,802.003906 
	C571.504578,802.002563 675.165527,801.985901 778.826416,802.068542 
	C782.191833,802.071228 783.885376,801.237305 785.397217,797.954285 
	C795.099060,776.886169 816.507629,765.626282 839.844482,768.929504 
	C859.159973,771.663513 876.313171,787.215088 880.989685,806.233032 
	C886.010498,826.651184 878.168518,848.637024 861.733032,860.221924 
	C835.882385,878.443298 802.209473,870.838745 786.640198,843.352112 
	C785.863647,841.981201 784.168335,840.207581 782.879578,840.190186 
	C766.922607,839.973694 750.961670,840.048828 735.377380,840.048828 
	C735.377380,850.719910 733.851685,861.261047 735.670776,871.189331 
	C740.620361,898.203308 766.754028,914.499817 789.306152,914.324158 
	C867.463806,913.715454 945.629028,914.117188 1023.791321,914.046265 
	C1051.412109,914.021179 1074.969727,890.367798 1074.985596,862.751221 
	C1075.030518,784.588806 1075.023438,706.426453 1075.006714,628.264038 
	C1075.004395,617.846191 1071.910645,608.295349 1066.118408,599.694397 
	C1052.436035,579.377441 1024.403198,569.967346 997.936951,576.814575 
	C997.936951,590.905640 998.095642,605.062744 997.829712,619.211792 
	C997.759888,622.926453 999.066589,624.723877 1002.143250,626.514343 
	C1023.998047,639.233032 1030.978027,660.560669 1026.510620,682.326599 
	C1020.289307,712.638428 989.396729,729.340820 959.952637,719.422058 
	C929.083984,709.023438 916.415955,672.019775 934.333313,642.870117 
z"/>
<path fill="#FDFDFD" opacity="1.000000" stroke="none" 
	d="
M454.514496,1202.597290 
	C453.306335,1203.788940 452.116730,1205.124390 450.904755,1205.144897 
	C440.920288,1205.314819 430.931732,1205.240967 420.491058,1205.240967 
	C420.491058,1156.111694 420.491058,1107.440552 420.491058,1058.230713 
	C430.353638,1058.230713 440.126312,1058.072388 449.882233,1058.405518 
	C451.305359,1058.454102 453.006866,1060.626465 453.975098,1062.190308 
	C470.993225,1089.679443 487.916412,1117.227295 504.867554,1144.757812 
	C505.289886,1145.443726 505.796814,1146.077637 506.389648,1146.912109 
	C523.149414,1119.020386 539.868103,1091.381958 556.329346,1063.591064 
	C558.648010,1059.676514 561.094910,1058.038574 565.711670,1058.268799 
	C573.967163,1058.680542 582.257996,1058.384766 591.189697,1058.384766 
	C591.189697,1107.498779 591.189697,1155.910156 591.189697,1204.744141 
	C580.277466,1204.744141 569.200134,1204.744141 557.348145,1204.744141 
	C557.348145,1177.163940 557.348145,1149.510620 557.348145,1121.857178 
	C556.948608,1121.764648 556.549011,1121.671997 556.149475,1121.579346 
	C553.858704,1125.282959 551.543457,1128.971680 549.281433,1132.692627 
	C538.593933,1150.273926 527.810608,1167.798706 517.333557,1185.504639 
	C515.173767,1189.154663 512.646362,1189.891968 508.647644,1190.390991 
	C499.971527,1191.473755 495.384949,1187.869873 491.135437,1180.562256 
	C480.298645,1161.926392 468.526550,1143.834473 457.122620,1125.528564 
	C456.641754,1124.756592 456.099762,1124.022583 454.522675,1123.534546 
	C454.522675,1149.733643 454.522675,1175.932617 454.514496,1202.597290 
z"/>
<path fill="#01F3FE" opacity="1.000000" stroke="none" 
	d="
M210.667938,1202.526001 
	C209.532776,1203.641357 208.426620,1204.845825 207.303238,1204.861938 
	C197.147934,1205.008911 186.989609,1204.947998 176.313812,1204.947998 
	C176.313812,1156.290161 176.313812,1107.786865 176.313812,1058.896851 
	C185.612930,1058.896851 194.881454,1058.672241 204.120987,1059.089355 
	C205.934570,1059.171265 207.919708,1061.496216 209.346771,1063.189941 
	C230.911301,1088.784912 252.394287,1114.448608 273.903015,1140.090576 
	C275.113159,1141.533325 276.380463,1142.928101 278.767212,1143.838867 
	C278.767212,1115.681274 278.767212,1087.523560 278.767212,1059.070312 
	C290.731018,1059.070312 302.115631,1059.070312 313.822998,1059.070312 
	C313.822998,1107.722656 313.822998,1156.086914 313.822998,1204.948730 
	C304.446411,1204.948730 295.329071,1205.109863 286.228241,1204.794556 
	C284.658936,1204.739990 282.869202,1202.905518 281.671326,1201.481079 
	C259.059937,1174.592407 236.523560,1147.640625 213.963684,1120.708618 
	C213.252228,1119.859375 212.456985,1119.080444 210.688980,1117.182617 
	C210.688980,1146.330444 210.688980,1174.197266 210.667938,1202.526001 
z"/>
<path fill="#FDFDFE" opacity="1.000000" stroke="none" 
	d="
M924.731995,1108.999756 
	C924.732239,1091.882080 924.732239,1075.264404 924.732239,1058.378540 
	C926.021667,1058.276123 926.972168,1058.135010 927.922668,1058.134766 
	C950.753845,1058.127686 973.590149,1057.842041 996.414551,1058.238159 
	C1013.290405,1058.530884 1029.044067,1062.898438 1041.523193,1075.101807 
	C1065.194214,1098.249634 1059.715942,1138.356445 1030.841431,1154.445801 
	C1029.407837,1155.244629 1027.988892,1156.069824 1026.058472,1157.170410 
	C1031.712769,1165.191528 1037.213989,1172.989380 1042.708618,1180.791748 
	C1048.202393,1188.593018 1053.689697,1196.398926 1059.744751,1205.005981 
	C1045.957642,1205.005981 1033.511353,1205.103149 1021.071289,1204.867676 
	C1019.707825,1204.841919 1018.034180,1203.151001 1017.090698,1201.817627 
	C1008.939392,1190.297241 1000.977234,1178.642944 992.794983,1167.145020 
	C991.795898,1165.740967 989.857849,1164.177856 988.308960,1164.128418 
	C979.348083,1163.842651 970.373413,1163.988770 960.891968,1163.988770 
	C960.891968,1175.878662 960.580566,1187.489258 961.031555,1199.070312 
	C961.237671,1204.362915 959.542725,1205.521606 954.583496,1205.320923 
	C944.792114,1204.924561 934.973389,1205.203857 924.731750,1205.203857 
	C924.731750,1173.037720 924.731750,1141.268799 924.731995,1108.999756 
M1016.938477,1100.844116 
	C1013.887268,1094.617432 1008.817078,1090.074707 1002.197021,1089.413086 
	C988.593201,1088.053467 974.871765,1087.870728 961.208008,1087.204102 
	C961.208008,1103.813599 961.208008,1119.201782 961.208008,1134.606812 
	C972.478516,1134.606812 983.449890,1135.137939 994.351868,1134.494629 
	C1016.104065,1133.210693 1023.096436,1115.752686 1016.938477,1100.844116 
z"/>
<path fill="#FDFDFE" opacity="1.000000" stroke="none" 
	d="
M674.804810,1059.484131 
	C676.572754,1058.845825 678.135193,1058.325806 679.702332,1058.311401 
	C688.194580,1058.233154 696.708130,1058.633911 705.173767,1058.154297 
	C710.415527,1057.857178 713.049988,1059.581909 715.256104,1064.381836 
	C733.012451,1103.015991 751.045227,1141.522949 769.016602,1180.058105 
	C772.174744,1186.829956 775.458679,1193.543213 778.641296,1200.303711 
	C779.253296,1201.603760 779.663086,1202.999023 780.406860,1204.996948 
	C767.663147,1204.996948 755.567078,1205.078369 743.476379,1204.858887 
	C742.382202,1204.839111 740.896606,1203.075195 740.317505,1201.793579 
	C736.760681,1193.922485 733.336426,1185.988403 730.038879,1178.004761 
	C728.990112,1175.465576 727.889221,1174.113770 724.703491,1174.143311 
	C703.889038,1174.336670 683.071594,1174.316895 662.256287,1174.183594 
	C659.438416,1174.165649 658.124634,1175.091309 657.107910,1177.603882 
	C653.929016,1185.459595 650.382812,1193.168335 647.286133,1201.054810 
	C646.155884,1203.933472 644.817261,1205.154541 641.557495,1205.086792 
	C630.789124,1204.862671 620.013123,1205.002197 608.038696,1205.002197 
	C630.479614,1156.060913 652.540588,1107.948486 674.804810,1059.484131 
M714.975647,1144.483521 
	C707.998535,1128.000977 701.021423,1111.518433 694.044373,1095.035889 
	C693.613037,1095.009644 693.181763,1094.983521 692.750427,1094.957397 
	C685.411438,1112.112549 678.072449,1129.267578 670.489380,1146.993164 
	C685.474426,1146.993164 699.751892,1147.009277 714.028625,1146.917480 
	C714.466309,1146.914673 714.896729,1145.790894 714.975647,1144.483521 
z"/>
<path fill="#FCFCFC" opacity="1.000000" stroke="none" 
	d="
M1178.539551,1111.453125 
	C1166.082153,1093.907104 1153.826538,1076.661499 1140.602295,1058.053101 
	C1144.763184,1058.053101 1147.311279,1058.052368 1149.859497,1058.053345 
	C1159.357178,1058.056763 1168.857544,1058.190186 1178.351074,1057.993164 
	C1181.579224,1057.926270 1183.397949,1059.098022 1185.215210,1061.716675 
	C1194.683716,1075.359619 1204.383545,1088.842163 1214.020020,1102.368164 
	C1214.283081,1102.737549 1214.740356,1102.968628 1215.256226,1103.384277 
	C1225.502441,1089.395508 1235.749634,1075.565308 1245.774048,1061.575806 
	C1247.638916,1058.973389 1249.533447,1057.943726 1252.723755,1058.007446 
	C1262.883911,1058.210205 1273.050781,1058.073364 1283.214966,1058.098145 
	C1284.654419,1058.101562 1286.093262,1058.273682 1288.898804,1058.456909 
	C1284.512085,1064.595337 1280.787720,1069.934082 1276.933228,1075.177124 
	C1264.537964,1092.036987 1252.213257,1108.951294 1239.578613,1125.630493 
	C1236.745117,1129.371094 1238.629150,1131.526611 1240.614014,1134.251953 
	C1256.543457,1156.125244 1272.442139,1178.020630 1288.324097,1199.928345 
	C1289.352051,1201.346313 1290.162476,1202.922119 1291.537720,1205.188843 
	C1277.338623,1205.188843 1264.067139,1205.281372 1250.801270,1205.046997 
	C1249.465576,1205.023315 1247.852051,1203.245605 1246.896118,1201.905029 
	C1236.676758,1187.574341 1226.566284,1173.165894 1216.414551,1158.786987 
	C1215.940063,1158.114746 1215.358643,1157.517822 1214.429199,1156.413086 
	C1210.441162,1161.924194 1206.541016,1167.173950 1202.789673,1172.527832 
	C1195.738892,1182.590332 1188.821533,1192.746826 1181.707397,1202.763794 
	C1180.902954,1203.896484 1179.198730,1205.050171 1177.896729,1205.067505 
	C1165.085449,1205.238403 1152.271118,1205.170654 1138.531128,1205.170654 
	C1140.040649,1202.598877 1141.028809,1200.566528 1142.327148,1198.756592 
	C1157.812622,1177.169067 1173.292236,1155.576782 1188.923096,1134.094604 
	C1191.113892,1131.083740 1191.365479,1128.883423 1188.949585,1125.884888 
	C1185.309082,1121.366089 1182.121460,1116.482300 1178.539551,1111.453125 
z"/>
<path fill="#00F3FE" opacity="1.000000" stroke="none" 
	d="
M15.720661,1179.186768 
	C8.871842,1167.778809 6.054510,1155.640869 6.032674,1142.809692 
	C5.985609,1115.153320 6.018209,1087.496948 6.018209,1059.413330 
	C17.852465,1059.413330 29.531610,1059.413330 41.742798,1059.413330 
	C41.742798,1061.354126 41.738354,1063.145386 41.743462,1064.936768 
	C41.818554,1091.263062 41.832233,1117.589966 42.038719,1143.915283 
	C42.069607,1147.852905 42.580692,1151.897217 43.596634,1155.697876 
	C48.384258,1173.608398 64.238449,1178.962891 80.844719,1176.592407 
	C100.052704,1173.850708 106.544090,1160.826660 106.864555,1141.825439 
	C107.297195,1116.172729 106.977028,1090.507080 106.979843,1064.847046 
	C106.980042,1063.053223 106.979874,1061.259399 106.979874,1059.234863 
	C118.708504,1059.234863 129.967545,1059.234863 141.571472,1059.234863 
	C141.689209,1060.538940 141.902161,1061.807007 141.903702,1063.075439 
	C141.936096,1089.735229 142.131531,1116.396729 141.886520,1143.054199 
	C141.743332,1158.634277 138.178696,1173.315063 127.880096,1185.662598 
	C117.051720,1198.645142 102.657242,1205.057129 86.309143,1206.614380 
	C70.201836,1208.148682 54.107597,1207.631836 39.108757,1200.053467 
	C29.552114,1195.224976 21.637241,1188.620605 15.720661,1179.186768 
z"/>
<path fill="#FBFCFC" opacity="1.000000" stroke="none" 
	d="
M872.003174,1087.091675 
	C866.800720,1087.416992 862.045715,1087.741943 856.834961,1088.098145 
	C856.834961,1089.941528 856.834900,1091.728394 856.835022,1093.515381 
	C856.836914,1128.824707 856.771851,1164.134277 856.928101,1199.442993 
	C856.946960,1203.711304 855.965881,1205.310181 851.405884,1205.114136 
	C842.761047,1204.742432 834.080444,1204.779663 825.431702,1205.103394 
	C821.176147,1205.262695 820.122803,1203.833130 820.135864,1199.741821 
	C820.250854,1163.766846 820.163391,1127.791138 820.135986,1091.815674 
	C820.135132,1090.670410 820.135864,1089.525146 820.135864,1087.775391 
	C811.512268,1087.775391 803.165405,1087.776123 794.818542,1087.775146 
	C788.656067,1087.774414 782.491333,1087.673828 776.331970,1087.811035 
	C773.261414,1087.879395 771.804565,1087.079468 771.920959,1083.612305 
	C772.161194,1076.458496 772.127686,1069.287476 771.931702,1062.130981 
	C771.845154,1058.969360 773.095154,1058.147583 776.024902,1058.152832 
	C817.329834,1058.226929 858.635010,1058.234619 899.940063,1058.215332 
	C903.143677,1058.213867 904.948181,1059.166992 904.864990,1062.788940 
	C904.708130,1069.614258 905.017456,1076.456543 904.647827,1083.265503 
	C904.564331,1084.804199 902.513367,1087.498291 901.335510,1087.516235 
	C891.711487,1087.662109 882.079834,1087.299438 872.003174,1087.091675 
z"/>
<path fill="#FCFCFC" opacity="1.000000" stroke="none" 
	d="
M1084.308472,1072.019287 
	C1084.312012,1071.356445 1084.317017,1071.189819 1084.317383,1071.023193 
	C1084.340210,1058.163940 1084.340088,1058.180054 1097.452637,1058.240967 
	C1104.905396,1058.275513 1112.358398,1058.247192 1120.171265,1058.247192 
	C1120.171265,1107.403320 1120.171265,1155.980591 1120.171265,1204.781982 
	C1108.385010,1204.781982 1096.776123,1204.781982 1084.307739,1204.781982 
	C1084.307739,1160.684692 1084.307739,1116.600220 1084.308472,1072.019287 
z"/>
<path fill="#00F3FE" opacity="1.000000" stroke="none" 
	d="
M356.225159,1204.864014 
	C352.071289,1205.306396 349.965424,1204.612793 349.979736,1199.971313 
	C350.121765,1153.852295 350.052307,1107.732544 350.052490,1061.613037 
	C350.052490,1060.969360 350.179779,1060.325806 350.283936,1059.338867 
	C361.752838,1059.338867 373.128326,1059.338867 384.815216,1059.338867 
	C384.815216,1107.754150 384.815216,1156.089722 384.815216,1204.866821 
	C375.258820,1204.866821 365.979095,1204.866821 356.225159,1204.864014 
z"/>
<path fill="#FFFFFF" opacity="1.000000" stroke="none" 
	d="
M934.145020,643.178711 
	C916.415955,672.019775 929.083984,709.023438 959.952637,719.422058 
	C989.396729,729.340820 1020.289307,712.638428 1026.510620,682.326599 
	C1030.978027,660.560669 1023.998047,639.233032 1002.143250,626.514343 
	C999.066589,624.723877 997.759888,622.926453 997.829712,619.211792 
	C998.095642,605.062744 997.936951,590.905640 997.936951,576.814575 
	C1024.403198,569.967346 1052.436035,579.377441 1066.118408,599.694397 
	C1071.910645,608.295349 1075.004395,617.846191 1075.006714,628.264038 
	C1075.023438,706.426453 1075.030518,784.588806 1074.985596,862.751221 
	C1074.969727,890.367798 1051.412109,914.021179 1023.791321,914.046265 
	C945.629028,914.117188 867.463806,913.715454 789.306152,914.324158 
	C766.754028,914.499817 740.620361,898.203308 735.670776,871.189331 
	C733.851685,861.261047 735.377380,850.719910 735.377380,840.048828 
	C750.961670,840.048828 766.922607,839.973694 782.879578,840.190186 
	C784.168335,840.207581 785.863647,841.981201 786.640198,843.352112 
	C802.209473,870.838745 835.882385,878.443298 861.733032,860.221924 
	C878.168518,848.637024 886.010498,826.651184 880.989685,806.233032 
	C876.313171,787.215088 859.159973,771.663513 839.844482,768.929504 
	C816.507629,765.626282 795.099060,776.886169 785.397217,797.954285 
	C783.885376,801.237305 782.191833,802.071228 778.826416,802.068542 
	C675.165527,801.985901 571.504578,802.002563 467.843597,802.003906 
	C465.866547,802.003906 463.889526,802.003967 461.494049,802.003967 
	C461.494049,814.588440 461.494049,826.829773 461.494049,839.633789 
	C493.909729,839.633789 526.472656,839.633789 558.886475,839.633789 
	C566.649536,869.093811 552.967468,898.764526 526.266968,910.211243 
	C521.065552,912.441162 515.075562,913.884338 509.444183,913.900452 
	C429.282684,914.129822 349.120148,914.130493 268.958191,913.995483 
	C246.089096,913.956970 224.822479,895.053162 220.079727,871.077209 
	C219.375290,867.516052 219.026398,863.824768 219.023941,860.193359 
	C218.972137,783.197632 218.962921,706.201843 219.016312,629.206116 
	C219.036758,599.721863 242.793381,576.079590 272.292267,576.004211 
	C279.955627,575.984619 287.619049,576.001221 295.767578,576.001221 
	C295.767578,608.808655 295.767578,641.533752 295.767578,674.629150 
	C308.815460,674.629150 321.387451,674.629150 334.574646,674.629150 
	C334.649078,673.005371 334.799194,671.243225 334.800140,669.480957 
	C334.813904,643.832642 334.827850,618.184387 334.801910,592.536072 
	C334.753418,544.554871 334.639374,496.573700 334.629578,448.592499 
	C334.623138,417.112213 334.793304,385.631897 334.756165,354.151733 
	C334.752441,350.987610 335.416931,349.302032 338.618774,347.829926 
	C360.549255,337.746887 372.087097,313.065216 366.167664,289.618073 
	C359.972595,265.079193 338.608246,249.529709 313.236145,251.093307 
	C289.526184,252.554459 269.976501,271.027435 266.739990,295.028534 
	C263.770203,317.051727 273.499878,336.372894 292.864532,347.319733 
	C294.274689,348.116913 295.893066,350.109314 295.911774,351.565308 
	C296.125824,368.209595 296.047943,384.857605 296.047943,402.109436 
	C278.105438,401.765167 260.138733,404.749207 243.933517,393.657532 
	C227.967255,382.729431 219.295151,367.548950 219.187927,348.779724 
	C218.721481,267.120331 218.843857,185.456299 219.077744,103.794891 
	C219.154694,76.925331 243.199814,52.997219 270.172546,52.150574 
	C280.495239,51.826553 290.834717,52.003170 301.166534,52.006489 
	C369.662018,52.028477 438.158569,51.850399 506.652435,52.199516 
	C535.452393,52.346313 558.888794,76.656509 559.118774,105.416489 
	C559.185181,113.713684 559.129028,122.011856 559.129028,130.998734 
	C554.714355,130.998734 550.132751,130.998718 545.551208,130.998718 
	C534.885132,130.998703 524.216919,130.882584 513.554199,131.070801 
	C510.431641,131.125931 508.776367,130.070786 507.480560,127.266945 
	C495.566315,101.487381 464.281036,90.548653 438.624146,102.844360 
	C421.447113,111.076180 411.888428,124.470299 410.005676,143.354416 
	C407.125824,172.239334 424.159119,194.844070 452.383301,199.537964 
	C474.603485,203.233337 494.295044,195.755661 506.436584,173.736664 
	C508.251221,170.445724 510.362701,169.958847 513.561768,169.960358 
	C618.556030,170.009888 723.550354,169.961426 828.544373,170.122620 
	C833.629395,170.130417 835.138489,168.913712 834.942566,163.785110 
	C834.535706,153.139954 834.819702,142.468414 834.819702,131.176239 
	C801.554626,131.176239 768.360413,131.176239 734.670288,131.176239 
	C735.748840,116.219383 732.732361,101.715889 737.998474,87.627602 
	C745.743652,66.906754 765.505005,52.216827 787.565186,52.161751 
	C865.392944,51.967438 943.221802,51.863426 1021.049255,52.091179 
	C1051.825928,52.181240 1074.997070,76.200783 1074.998169,106.922226 
	C1075.001221,187.417831 1074.748291,267.914581 1075.122437,348.408447 
	C1075.271851,380.569427 1045.888184,403.652863 1021.663208,402.183350 
	C1014.026123,401.720062 1006.337097,402.111023 998.245972,402.111023 
	C998.245972,367.637451 998.245972,333.220673 998.245972,298.314178 
	C985.154358,298.314178 972.481079,298.314178 959.137939,298.314178 
	C959.137939,300.509216 959.138733,302.623199 959.137756,304.737183 
	C959.091492,408.893402 959.020752,513.049622 959.086487,617.205811 
	C959.089111,621.442993 957.924866,623.717590 953.933411,625.566528 
	C945.786255,629.340454 939.231140,635.248291 934.145020,643.178711 
M604.815308,254.500214 
	C604.794006,235.312653 604.710083,216.124786 604.804688,196.937790 
	C604.823486,193.138184 603.238586,192.067017 599.681213,192.108398 
	C588.020081,192.244049 576.351013,192.347473 564.696167,192.040039 
	C560.263123,191.923111 559.252258,193.922012 559.278259,197.633774 
	C559.323547,204.088211 559.262573,210.543320 559.261169,216.998154 
	C559.252075,258.816681 559.276123,300.635254 559.205505,342.453674 
	C559.196228,347.919647 559.303162,353.492462 558.338318,358.831848 
	C554.030701,382.670868 529.004883,402.801270 503.560242,402.335052 
	C457.257446,401.486511 410.927734,402.158142 364.609924,402.000214 
	C360.137360,401.984955 358.935852,403.310455 359.043854,407.661987 
	C359.324799,418.984528 359.346191,430.325409 359.012177,441.645447 
	C358.878113,446.188965 360.391907,447.143311 364.682800,447.129913 
	C412.166992,446.981445 459.651825,447.036682 507.136505,447.037292 
	C525.728638,447.037537 542.901001,441.906067 558.476135,431.945770 
	C588.870422,412.508728 603.981384,384.194885 604.670532,348.467651 
	C605.268066,317.489075 604.808411,286.490143 604.815308,254.500214 
M734.374878,230.345825 
	C734.481201,219.398453 734.427490,208.446014 734.774658,197.506287 
	C734.908691,193.281754 733.443787,192.020538 729.329956,192.103317 
	C718.336731,192.324524 707.336060,192.168106 696.338318,192.164627 
	C689.403809,192.162430 689.364685,192.164841 689.384521,199.376755 
	C689.442993,220.637512 689.547607,241.898163 689.611694,263.158905 
	C689.697327,291.593719 689.870544,320.028900 689.790527,348.463318 
	C689.749146,363.186890 692.662598,377.277405 699.167725,390.354523 
	C716.703125,425.605560 745.341187,445.667450 784.694763,446.719177 
	C833.982666,448.036407 883.331116,447.090240 932.653442,447.105774 
	C933.272461,447.105957 933.891418,446.903870 934.866211,446.734314 
	C934.866211,435.265808 934.864990,423.972229 934.866699,412.678650 
	C934.868225,402.102203 934.869568,402.102142 924.062988,402.102020 
	C878.738525,402.101624 833.413879,402.046967 788.089600,402.129242 
	C771.428223,402.159515 758.404602,394.648376 747.756836,382.671265 
	C738.704834,372.489166 734.738342,360.314178 734.761414,346.557098 
	C734.825745,308.117157 734.530029,269.676575 734.374878,230.345825 
M600.211365,600.350220 
	C587.157959,558.130676 550.750427,531.159363 506.629059,531.119080 
	C459.304504,531.075928 411.979858,531.102173 364.655273,531.113831 
	C362.911652,531.114258 361.168121,531.278809 359.537750,531.361145 
	C359.537750,546.596436 359.537750,561.165771 359.537750,576.003296 
	C361.770691,576.003296 363.592346,576.003357 365.414032,576.003357 
	C412.238739,576.003357 459.063507,575.959717 505.888123,576.019592 
	C534.560425,576.056274 558.493286,599.258789 559.131592,627.826355 
	C559.488342,643.792725 559.328125,659.771423 559.335693,675.744568 
	C559.346741,699.043518 559.295959,722.342468 559.277954,745.641418 
	C559.269653,756.389587 559.276611,767.137695 559.276611,777.801636 
	C574.967651,777.801636 589.700989,777.801636 604.846252,777.801636 
	C604.846252,776.099182 604.847168,774.797363 604.846069,773.495544 
	C604.832642,757.346252 604.809937,741.197021 604.807190,725.047729 
	C604.802307,696.242737 604.787048,667.437805 604.821777,638.632812 
	C604.837097,625.948120 604.207092,613.350220 600.211365,600.350220 
M689.473755,776.982605 
	C691.145447,777.390625 692.813232,778.132874 694.489380,778.152161 
	C704.986389,778.273254 715.485168,778.233765 725.983398,778.245789 
	C728.730469,778.248962 731.477600,778.246277 734.504211,778.246277 
	C734.504211,775.672791 734.504028,773.856262 734.504333,772.039734 
	C734.511597,725.380493 734.967285,678.715637 734.375854,632.063965 
	C733.947876,598.304504 762.959106,574.910339 791.834656,575.678894 
	C837.462646,576.893250 883.146729,576.002136 928.807068,576.002136 
	C930.597473,576.002136 932.387878,576.002136 934.361450,576.002136 
	C934.361450,560.826660 934.361450,546.127869 934.361450,531.378662 
	C933.280273,531.251953 932.628967,531.108704 931.977661,531.108765 
	C882.484680,531.114258 832.990112,530.904785 783.499390,531.247620 
	C760.688049,531.405640 740.645264,539.922913 723.551636,554.838745 
	C700.679138,574.797241 689.532410,600.416199 689.367554,630.588623 
	C689.102600,679.079590 689.284790,727.572937 689.473755,776.982605 
M836.969727,254.559586 
	C832.019470,254.856232 826.929993,254.512970 822.142090,255.555328 
	C795.015015,261.461151 779.260925,285.641022 784.011719,313.573822 
	C788.384949,339.286896 815.155273,357.655457 840.730408,352.491577 
	C863.583679,347.877258 878.022827,332.246094 881.225647,308.653259 
	C884.833008,282.080292 864.638489,257.021423 836.969727,254.559586 
M359.384064,842.817566 
	C365.416595,832.244019 367.125031,820.781677 364.624329,809.099121 
	C358.775635,781.775818 333.126526,765.221252 305.658539,771.078308 
	C285.992859,775.271667 272.983490,787.732056 268.338287,807.052246 
	C263.535950,827.025879 268.963470,844.783508 285.649017,857.750977 
	C309.617188,876.378296 341.642578,869.981628 359.384064,842.817566 
M940.565125,186.923141 
	C953.135132,199.700211 968.641052,204.455856 985.949707,201.725266 
	C1014.044250,197.293106 1028.622070,171.219482 1028.175903,150.373596 
	C1027.478027,117.784744 995.249695,93.520653 963.915771,102.659630 
	C927.884644,113.168625 914.092651,157.323975 940.565125,186.923141 
M428.545258,635.027161 
	C426.358154,637.529236 423.917419,639.854126 422.025818,642.562622 
	C411.097626,658.210144 408.465546,675.097534 416.119354,692.764038 
	C423.794647,710.480347 437.971130,720.704712 456.900665,722.797607 
	C492.383820,726.720581 520.440552,692.442078 510.410980,658.208313 
	C500.112915,623.058105 458.320740,610.898193 428.545258,635.027161 
z"/>
<path fill="#111627" opacity="1.000000" stroke="none" 
	d="
M1017.052368,1101.216309 
	C1023.096436,1115.752686 1016.104065,1133.210693 994.351868,1134.494629 
	C983.449890,1135.137939 972.478516,1134.606812 961.208008,1134.606812 
	C961.208008,1119.201782 961.208008,1103.813599 961.208008,1087.204102 
	C974.871765,1087.870728 988.593201,1088.053467 1002.197021,1089.413086 
	C1008.817078,1090.074707 1013.887268,1094.617432 1017.052368,1101.216309 
z"/>
<path fill="#14192A" opacity="1.000000" stroke="none" 
	d="
M715.153076,1144.836670 
	C714.896729,1145.790894 714.466309,1146.914673 714.028625,1146.917480 
	C699.751892,1147.009277 685.474426,1146.993164 670.489380,1146.993164 
	C678.072449,1129.267578 685.411438,1112.112549 692.750427,1094.957397 
	C693.181763,1094.983521 693.613037,1095.009644 694.044373,1095.035889 
	C701.021423,1111.518433 707.998535,1128.000977 715.153076,1144.836670 
z"/>
<path fill="#FDFDFD" opacity="1.000000" stroke="none" 
	d="
M604.815674,255.000214 
	C604.808411,286.490143 605.268066,317.489075 604.670532,348.467651 
	C603.981384,384.194885 588.870422,412.508728 558.476135,431.945770 
	C542.901001,441.906067 525.728638,447.037537 507.136505,447.037292 
	C459.651825,447.036682 412.166992,446.981445 364.682800,447.129913 
	C360.391907,447.143311 358.878113,446.188965 359.012177,441.645447 
	C359.346191,430.325409 359.324799,418.984528 359.043854,407.661987 
	C358.935852,403.310455 360.137360,401.984955 364.609924,402.000214 
	C410.927734,402.158142 457.257446,401.486511 503.560242,402.335052 
	C529.004883,402.801270 554.030701,382.670868 558.338318,358.831848 
	C559.303162,353.492462 559.196228,347.919647 559.205505,342.453674 
	C559.276123,300.635254 559.252075,258.816681 559.261169,216.998154 
	C559.262573,210.543320 559.323547,204.088211 559.278259,197.633774 
	C559.252258,193.922012 560.263123,191.923111 564.696167,192.040039 
	C576.351013,192.347473 588.020081,192.244049 599.681213,192.108398 
	C603.238586,192.067017 604.823486,193.138184 604.804688,196.937790 
	C604.710083,216.124786 604.794006,235.312653 604.815674,255.000214 
z"/>
<path fill="#FDFDFD" opacity="1.000000" stroke="none" 
	d="
M734.375671,230.791046 
	C734.530029,269.676575 734.825745,308.117157 734.761414,346.557098 
	C734.738342,360.314178 738.704834,372.489166 747.756836,382.671265 
	C758.404602,394.648376 771.428223,402.159515 788.089600,402.129242 
	C833.413879,402.046967 878.738525,402.101624 924.062988,402.102020 
	C934.869568,402.102142 934.868225,402.102203 934.866699,412.678650 
	C934.864990,423.972229 934.866211,435.265808 934.866211,446.734314 
	C933.891418,446.903870 933.272461,447.105957 932.653442,447.105774 
	C883.331116,447.090240 833.982666,448.036407 784.694763,446.719177 
	C745.341187,445.667450 716.703125,425.605560 699.167725,390.354523 
	C692.662598,377.277405 689.749146,363.186890 689.790527,348.463318 
	C689.870544,320.028900 689.697327,291.593719 689.611694,263.158905 
	C689.547607,241.898163 689.442993,220.637512 689.384521,199.376755 
	C689.364685,192.164841 689.403809,192.162430 696.338318,192.164627 
	C707.336060,192.168106 718.336731,192.324524 729.329956,192.103317 
	C733.443787,192.020538 734.908691,193.281754 734.774658,197.506287 
	C734.427490,208.446014 734.481201,219.398453 734.375671,230.791046 
z"/>
<path fill="#FDFDFD" opacity="1.000000" stroke="none" 
	d="
M600.364441,600.723328 
	C604.207092,613.350220 604.837097,625.948120 604.821777,638.632812 
	C604.787048,667.437805 604.802307,696.242737 604.807190,725.047729 
	C604.809937,741.197021 604.832642,757.346252 604.846069,773.495544 
	C604.847168,774.797363 604.846252,776.099182 604.846252,777.801636 
	C589.700989,777.801636 574.967651,777.801636 559.276611,777.801636 
	C559.276611,767.137695 559.269653,756.389587 559.277954,745.641418 
	C559.295959,722.342468 559.346741,699.043518 559.335693,675.744568 
	C559.328125,659.771423 559.488342,643.792725 559.131592,627.826355 
	C558.493286,599.258789 534.560425,576.056274 505.888123,576.019592 
	C459.063507,575.959717 412.238739,576.003357 365.414032,576.003357 
	C363.592346,576.003357 361.770691,576.003296 359.537750,576.003296 
	C359.537750,561.165771 359.537750,546.596436 359.537750,531.361145 
	C361.168121,531.278809 362.911652,531.114258 364.655273,531.113831 
	C411.979858,531.102173 459.304504,531.075928 506.629059,531.119080 
	C550.750427,531.159363 587.157959,558.130676 600.364441,600.723328 
z"/>
<path fill="#FDFEFE" opacity="1.000000" stroke="none" 
	d="
M689.375854,776.523926 
	C689.284790,727.572937 689.102600,679.079590 689.367554,630.588623 
	C689.532410,600.416199 700.679138,574.797241 723.551636,554.838745 
	C740.645264,539.922913 760.688049,531.405640 783.499390,531.247620 
	C832.990112,530.904785 882.484680,531.114258 931.977661,531.108765 
	C932.628967,531.108704 933.280273,531.251953 934.361450,531.378662 
	C934.361450,546.127869 934.361450,560.826660 934.361450,576.002136 
	C932.387878,576.002136 930.597473,576.002136 928.807068,576.002136 
	C883.146729,576.002136 837.462646,576.893250 791.834656,575.678894 
	C762.959106,574.910339 733.947876,598.304504 734.375854,632.063965 
	C734.967285,678.715637 734.511597,725.380493 734.504333,772.039734 
	C734.504028,773.856262 734.504211,775.672791 734.504211,778.246277 
	C731.477600,778.246277 728.730469,778.248962 725.983398,778.245789 
	C715.485168,778.233765 704.986389,778.273254 694.489380,778.152161 
	C692.813232,778.132874 691.145447,777.390625 689.375854,776.523926 
z"/>
<path fill="#FEFEFE" opacity="1.000000" stroke="none" 
	d="
M837.394653,254.675690 
	C864.638489,257.021423 884.833008,282.080292 881.225647,308.653259 
	C878.022827,332.246094 863.583679,347.877258 840.730408,352.491577 
	C815.155273,357.655457 788.384949,339.286896 784.011719,313.573822 
	C779.260925,285.641022 795.015015,261.461151 822.142090,255.555328 
	C826.929993,254.512970 832.019470,254.856232 837.394653,254.675690 
z"/>
<path fill="#FEFEFE" opacity="1.000000" stroke="none" 
	d="
M359.230164,843.152344 
	C341.642578,869.981628 309.617188,876.378296 285.649017,857.750977 
	C268.963470,844.783508 263.535950,827.025879 268.338287,807.052246 
	C272.983490,787.732056 285.992859,775.271667 305.658539,771.078308 
	C333.126526,765.221252 358.775635,781.775818 364.624329,809.099121 
	C367.125031,820.781677 365.416595,832.244019 359.230164,843.152344 
z"/>
<path fill="#FDFDFD" opacity="1.000000" stroke="none" 
	d="
M940.318481,186.669144 
	C914.092651,157.323975 927.884644,113.168625 963.915771,102.659630 
	C995.249695,93.520653 1027.478027,117.784744 1028.175903,150.373596 
	C1028.622070,171.219482 1014.044250,197.293106 985.949707,201.725266 
	C968.641052,204.455856 953.135132,199.700211 940.318481,186.669144 
M957.312988,172.177673 
	C963.759766,178.772980 971.489563,181.295868 980.680237,180.134827 
	C991.661194,178.747635 999.678406,173.085114 1003.835571,163.123688 
	C1008.379639,152.235199 1006.740112,141.600922 998.923584,132.495529 
	C991.435425,123.772636 981.554260,120.904762 970.664124,123.649101 
	C948.876221,129.139664 941.786438,154.336624 957.312988,172.177673 
z"/>
<path fill="#FDFDFD" opacity="1.000000" stroke="none" 
	d="
M428.807983,634.784302 
	C458.320740,610.898193 500.112915,623.058105 510.410980,658.208313 
	C520.440552,692.442078 492.383820,726.720581 456.900665,722.797607 
	C437.971130,720.704712 423.794647,710.480347 416.119354,692.764038 
	C408.465546,675.097534 411.097626,658.210144 422.025818,642.562622 
	C423.917419,639.854126 426.358154,637.529236 428.807983,634.784302 
M434.237946,665.288696 
	C434.065125,667.108582 433.792419,668.925293 433.735626,670.748779 
	C433.352631,683.034607 438.633759,692.187988 449.453522,697.866333 
	C459.838135,703.316345 469.963348,702.142151 479.209991,695.142822 
	C488.947052,687.772339 491.894806,677.516174 489.658630,665.950928 
	C487.359497,654.059875 475.562317,644.710510 464.007629,643.895325 
	C450.197296,642.921143 437.463867,653.573547 434.237946,665.288696 
z"/>
<path fill="#111627" opacity="1.000000" stroke="none" 
	d="
M957.075623,171.909332 
	C941.786438,154.336624 948.876221,129.139664 970.664124,123.649101 
	C981.554260,120.904762 991.435425,123.772636 998.923584,132.495529 
	C1006.740112,141.600922 1008.379639,152.235199 1003.835571,163.123688 
	C999.678406,173.085114 991.661194,178.747635 980.680237,180.134827 
	C971.489563,181.295868 963.759766,178.772980 957.075623,171.909332 
z"/>
<path fill="#111627" opacity="1.000000" stroke="none" 
	d="
M434.473541,664.934570 
	C437.463867,653.573547 450.197296,642.921143 464.007629,643.895325 
	C475.562317,644.710510 487.359497,654.059875 489.658630,665.950928 
	C491.894806,677.516174 488.947052,687.772339 479.209991,695.142822 
	C469.963348,702.142151 459.838135,703.316345 449.453522,697.866333 
	C438.633759,692.187988 433.352631,683.034607 433.735626,670.748779 
	C433.792419,668.925293 434.065125,667.108582 434.473541,664.934570 
z"/>
</svg>